<mxfile host="65bd71144e">
    <diagram id="FSw9ZQPPfedLdQyX41DE" name="Page-1">
        <mxGraphModel dx="861" dy="604" grid="1" gridSize="10" guides="1" tooltips="1" connect="1" arrows="1" fold="1" page="1" pageScale="1" pageWidth="850" pageHeight="1100" math="0" shadow="0">
            <root>
                <mxCell id="0"/>
                <mxCell id="1" parent="0"/>
                <mxCell id="3" style="edgeStyle=none;html=1;entryX=0.5;entryY=0;entryDx=0;entryDy=0;fontSize=18;exitX=0;exitY=0.5;exitDx=0;exitDy=0;" edge="1" parent="1" source="5" target="6">
                    <mxGeometry relative="1" as="geometry">
                        <Array as="points">
                            <mxPoint x="280" y="205"/>
                        </Array>
                    </mxGeometry>
                </mxCell>
                <mxCell id="4" style="edgeStyle=none;html=1;entryX=0.5;entryY=0;entryDx=0;entryDy=0;fontSize=18;exitX=1;exitY=0.5;exitDx=0;exitDy=0;" edge="1" parent="1" source="5" target="7">
                    <mxGeometry relative="1" as="geometry">
                        <Array as="points">
                            <mxPoint x="545" y="205"/>
                        </Array>
                    </mxGeometry>
                </mxCell>
                <mxCell id="5" value="Services" style="html=1;fontSize=18;" vertex="1" parent="1">
                    <mxGeometry x="340" y="180" width="140" height="50" as="geometry"/>
                </mxCell>
                <mxCell id="6" value="Commands" style="html=1;fontSize=18;" vertex="1" parent="1">
                    <mxGeometry x="220" y="265" width="120" height="50" as="geometry"/>
                </mxCell>
                <mxCell id="7" value="Queries" style="html=1;fontSize=18;" vertex="1" parent="1">
                    <mxGeometry x="480" y="260" width="130" height="50" as="geometry"/>
                </mxCell>
                <mxCell id="9" value="Repositories" style="html=1;fontSize=18;" vertex="1" parent="1">
                    <mxGeometry x="330" y="470" width="150" height="50" as="geometry"/>
                </mxCell>
                <mxCell id="10" value="Database" style="shape=datastore;whiteSpace=wrap;html=1;fontSize=18;" vertex="1" parent="1">
                    <mxGeometry x="320" y="570" width="170" height="140" as="geometry"/>
                </mxCell>
                <mxCell id="11" value="" style="shape=doubleArrow;direction=south;whiteSpace=wrap;html=1;fontSize=18;" vertex="1" parent="1">
                    <mxGeometry x="385" y="520" width="40" height="70" as="geometry"/>
                </mxCell>
                <mxCell id="12" style="edgeStyle=none;html=1;entryX=0.5;entryY=0;entryDx=0;entryDy=0;fontSize=18;" edge="1" parent="1" source="6" target="9">
                    <mxGeometry relative="1" as="geometry"/>
                </mxCell>
                <mxCell id="13" style="edgeStyle=none;html=1;entryX=0.5;entryY=0;entryDx=0;entryDy=0;fontSize=18;" edge="1" parent="1" source="7" target="9">
                    <mxGeometry relative="1" as="geometry"/>
                </mxCell>
                <mxCell id="14" value="&lt;font style=&quot;font-size: 14px;&quot;&gt;Writes&lt;/font&gt;" style="text;html=1;strokeColor=none;fillColor=none;align=center;verticalAlign=middle;whiteSpace=wrap;rounded=0;fontSize=18;rotation=56;" vertex="1" parent="1">
                    <mxGeometry x="300" y="370" width="60" height="30" as="geometry"/>
                </mxCell>
                <mxCell id="15" value="&lt;font style=&quot;font-size: 14px;&quot;&gt;Reads&lt;/font&gt;" style="text;html=1;strokeColor=none;fillColor=none;align=center;verticalAlign=middle;whiteSpace=wrap;rounded=0;fontSize=18;rotation=-53.2;" vertex="1" parent="1">
                    <mxGeometry x="460" y="370" width="60" height="30" as="geometry"/>
                </mxCell>
            </root>
        </mxGraphModel>
    </diagram>
</mxfile>